<svg viewBox="0 35 550 400"><g data-paper-data="{&quot;isGlobalGroup&quot;:true,&quot;bounds&quot;:{&quot;x&quot;:65,&quot;y&quot;:121.97438560882736,&quot;width&quot;:420,&quot;height&quot;:226.0512287823453}}" fill="#f68d2e" stroke-miterlimit="10" font-family="none" font-weight="none" font-size="none" text-anchor="none" style="mix-blend-mode:normal"><g data-paper-data="{&quot;isPrimaryText&quot;:true}"><path d="M65 298.686h9.167v49.34H65z" data-paper-data="{&quot;glyphName&quot;:&quot;I&quot;,&quot;glyphIndex&quot;:0,&quot;firstGlyphOfWord&quot;:true,&quot;word&quot;:1}"/><path d="M91.7 348.026V307.79H79.457v-9.105h33.098v9.105h-11.75v40.235z" data-paper-data="{&quot;glyphName&quot;:&quot;T&quot;,&quot;glyphIndex&quot;:1,&quot;word&quot;:1}"/><path d="M117.908 298.686h9.166v49.34h-9.166z" data-paper-data="{&quot;glyphName&quot;:&quot;I&quot;,&quot;glyphIndex&quot;:2,&quot;word&quot;:1}"/><path d="M135.502 348.026v-49.34h17.103l12.612 42.88h2.707v-42.88h8.49v49.34h-17.288l-12.488-42.019h-2.584v42.019z" data-paper-data="{&quot;glyphName&quot;:&quot;N&quot;,&quot;glyphIndex&quot;:3,&quot;word&quot;:1}"/><path d="M184.473 348.026v-49.34h17.102l12.612 42.88h2.707v-42.88h8.49v49.34h-17.287l-12.49-42.019h-2.583v42.019z" data-paper-data="{&quot;glyphName&quot;:&quot;N&quot;,&quot;glyphIndex&quot;:4,&quot;word&quot;:1}"/><path d="M246.24 348.026q-4 0-6.799-2.061t-4.583-5.26-2.584-7.044q-.8-3.846-.8-7.414v-6.029q0-3.506.739-7.32.738-3.814 2.46-6.983 1.723-3.168 4.553-5.199t7.013-2.03h10.582q4.122 0 6.952 2.03 2.83 2.031 4.583 5.199t2.491 6.982q.74 3.815.739 7.321v6.03q0 3.629-.77 7.474-.768 3.845-2.522 7.013-1.753 3.17-4.583 5.23t-6.89 2.06zm16.548-27.808q0-2.214-.277-4.43-.276-2.214-.984-3.998t-1.907-2.891-3.045-1.108h-10.09q-1.845 0-3.045 1.108-1.2 1.107-1.938 2.891-.737 1.784-1.046 3.999a32 32 0 0 0-.307 4.43v6.09q0 1.538.246 3.691.245 2.154.923 4.153.676 1.999 1.937 3.383 1.262 1.385 3.23 1.385h10.09q1.784 0 2.983-1.139 1.2-1.137 1.908-2.953.707-1.815 1.015-4.09.307-2.277.307-4.492z" data-paper-data="{&quot;glyphName&quot;:&quot;O&quot;,&quot;glyphIndex&quot;:5,&quot;word&quot;:1}"/><path d="M291.15 338.92h2.46l8.859-40.234h9.966l-12.242 49.34h-15.319l-12.427-49.34h9.966z" data-paper-data="{&quot;glyphName&quot;:&quot;V&quot;,&quot;glyphIndex&quot;:6,&quot;word&quot;:1}"/><path d="M335.751 335.475h-15.749l-2.83 12.55h-9.905l12.243-49.339h16.549l12.427 49.34h-10.028zm-14.088-7.628h12.427l-4.306-20.056h-3.691z" data-paper-data="{&quot;glyphName&quot;:&quot;A&quot;,&quot;glyphIndex&quot;:7,&quot;word&quot;:1}"/><path d="M355.869 348.026V307.79h-12.243v-9.105h33.098v9.105h-11.75v40.235z" data-paper-data="{&quot;glyphName&quot;:&quot;T&quot;,&quot;glyphIndex&quot;:8,&quot;word&quot;:1}"/><path d="M382.076 298.686h9.167v49.34h-9.167z" data-paper-data="{&quot;glyphName&quot;:&quot;I&quot;,&quot;glyphIndex&quot;:9,&quot;word&quot;:1}"/><path d="M412.467 348.026q-3.998 0-6.798-2.061-2.798-2.062-4.583-5.26-1.784-3.2-2.584-7.044-.8-3.846-.8-7.414v-6.029q0-3.506.739-7.32.738-3.814 2.46-6.983 1.723-3.168 4.553-5.199t7.013-2.03h10.582q4.122 0 6.952 2.03 2.83 2.031 4.583 5.199t2.492 6.982.738 7.321v6.03q0 3.629-.77 7.474-.768 3.845-2.522 7.013-1.752 3.17-4.583 5.23-2.83 2.06-6.89 2.06zm16.55-27.808q0-2.214-.277-4.43-.277-2.214-.985-3.998-.707-1.785-1.907-2.891-1.2-1.108-3.045-1.108h-10.09q-1.845 0-3.045 1.108-1.2 1.107-1.938 2.891t-1.045 3.999a32 32 0 0 0-.308 4.43v6.09q0 1.538.246 3.691.246 2.154.923 4.153.676 1.999 1.938 3.383 1.26 1.385 3.23 1.385h10.089q1.784 0 2.984-1.139 1.2-1.137 1.907-2.953t1.015-4.09q.307-2.277.307-4.492z" data-paper-data="{&quot;glyphName&quot;:&quot;O&quot;,&quot;glyphIndex&quot;:10,&quot;word&quot;:1}"/><path d="M444.089 348.026v-49.34h17.103l12.611 42.88h2.707v-42.88H485v49.34h-17.287l-12.489-42.019h-2.584v42.019z" data-paper-data="{&quot;glyphName&quot;:&quot;N&quot;,&quot;glyphIndex&quot;:11,&quot;lastGlyphOfWord&quot;:true,&quot;word&quot;:1}"/></g><g data-paper-data="{&quot;selectedEffects&quot;:{&quot;container&quot;:&quot;&quot;,&quot;transformation&quot;:&quot;&quot;,&quot;pattern&quot;:&quot;&quot;},&quot;initialText&quot;:&quot;I&quot;,&quot;isIcon&quot;:&quot;true&quot;,&quot;iconType&quot;:&quot;initial&quot;,&quot;iconStyle&quot;:&quot;standalone&quot;,&quot;rawInitialId&quot;:57,&quot;disableIconEffects&quot;:&quot;true&quot;,&quot;monogramSpecial&quot;:&quot;half-moon&quot;,&quot;bounds&quot;:{&quot;x&quot;:200.7532530149895,&quot;y&quot;:121.97438560882736,&quot;width&quot;:148.49349397002104,&quot;height&quot;:147.2268981724828},&quot;fillRule&quot;:&quot;evenodd&quot;,&quot;suitableAsStandaloneIcon&quot;:true}"><path d="M200.753 195.588c0-40.656 32.958-73.614 73.614-73.614 17.145 0 32.921 5.862 45.434 15.69-9.53-5.306-20.503-8.329-32.184-8.329-36.59 0-66.252 29.663-66.252 66.253s29.662 66.252 66.252 66.252c11.68 0 22.655-3.023 32.184-8.329-12.513 9.829-28.289 15.69-45.434 15.69-40.656 0-73.614-32.958-73.614-73.613m148.494 0c0 32.524-26.367 58.89-58.892 58.89a58.64 58.64 0 0 1-36.347-12.551c7.623 4.244 16.403 6.663 25.747 6.663 29.272 0 53.002-23.73 53.002-53.002s-23.73-53.002-53.002-53.002c-9.344 0-18.124 2.418-25.747 6.663a58.64 58.64 0 0 1 36.347-12.552c32.525 0 58.892 26.366 58.892 58.89m-68.03-33.46h-12.434v66.92h12.433z" data-paper-data="{&quot;isPathIcon&quot;:true}"/></g></g><g class="watermark-group" style="opacity:.040000010281801224"><path class="watermark-path" d="M129.52 370.3a11.9 11.9 0 0 1 2.58 5.58 12 12 0 0 1 .11 3 11.8 11.8 0 0 1-.64 2.93 12.3 12.3 0 0 1-1.41 2.72 11.7 11.7 0 0 1-2.13 2.32 12 12 0 0 1-2.64 1.69 13 13 0 0 1-2.91.9 12.5 12.5 0 0 1-3 .12 12.2 12.2 0 0 1-2.93-.64 11.8 11.8 0 0 1-2.72-1.38 12.2 12.2 0 0 1-4-4.79 12 12 0 0 1-.89-2.92 12 12 0 0 1-.13-3 11.5 11.5 0 0 1 .64-2.92 11.67 11.67 0 0 1 3.5-5 11.4 11.4 0 0 1 2.67-1.69 11.6 11.6 0 0 1 2.92-.91 10.7 10.7 0 0 1 3-.12 11.7 11.7 0 0 1 5.66 2 11.7 11.7 0 0 1 2.34 2.12m-1.4 8.76a13 13 0 0 1-1.22 2.32 9.7 9.7 0 0 1-1.81 2 7.4 7.4 0 0 1-2.38 1.37 6.17 6.17 0 0 1-5.11-.46 8.73 8.73 0 0 1-3.85-4.58 6.7 6.7 0 0 1-.34-2.66 6.1 6.1 0 0 1 .77-2.47 7.2 7.2 0 0 1 1.75-2.11 10 10 0 0 1 1.09-.81 8 8 0 0 1 1.12-.63 8 8 0 0 1 1.19-.46 13 13 0 0 1 1.32-.37l2 2.38a13 13 0 0 0-1.56.17 8 8 0 0 0-1.23.32 4.5 4.5 0 0 0-1 .49 6.4 6.4 0 0 0-.93.67 4.5 4.5 0 0 0-1.15 1.39 3.9 3.9 0 0 0-.45 1.58 4.1 4.1 0 0 0 .26 1.63 6.1 6.1 0 0 0 2.36 2.82 4.4 4.4 0 0 0 1.57.53 3.9 3.9 0 0 0 1.62-.17 4.7 4.7 0 0 0 1.57-.89 11 11 0 0 0 .83-.79 5.7 5.7 0 0 0 .65-.93 10 10 0 0 0 .54-1.14 12 12 0 0 0 .44-1.49l2 2.33m-14.46 4.55a8.9 8.9 0 0 0 2.78 2.22 9 9 0 0 0 3.29.94 9.2 9.2 0 0 0 3.39-.37 8.7 8.7 0 0 0 3.11-1.69 8.8 8.8 0 0 0 2.22-2.78 9.2 9.2 0 0 0 1-3.29 8.95 8.95 0 0 0-4.83-8.76 9 9 0 0 0-6.73-.57 9 9 0 0 0-5.33 4.47 8.94 8.94 0 0 0-.57 6.71 8.8 8.8 0 0 0 1.7 3.12M147 349c-.48.12-1.09.31-1.82.57a24 24 0 0 0-2.4 1A28 28 0 0 0 140 352a21 21 0 0 0-2.71 1.94c-.7.59-1.28 1.11-1.74 1.57a15 15 0 0 0-1.1 1.22 4 4 0 0 0-.59.92 2.3 2.3 0 0 0-.22.64 1.2 1.2 0 0 0 0 .47 2 2 0 0 0 .18.29 1.15 1.15 0 0 0 1 .37 5.5 5.5 0 0 0 1.51-.38q.87-.35 1.95-.9l2.26-1.18q1.2-.65 2.49-1.29c.87-.44 1.73-.83 2.59-1.17a19 19 0 0 1 2.6-.81 9.3 9.3 0 0 1 2.46-.29 6.3 6.3 0 0 1 2.24.49 5.1 5.1 0 0 1 1.89 1.47 6.35 6.35 0 0 1 1.41 2.61 6 6 0 0 1 .09 2.6 8.3 8.3 0 0 1-.9 2.52 18 18 0 0 1-1.62 2.37 24 24 0 0 1-2 2.15c-.72.67-1.41 1.29-2.09 1.87a34 34 0 0 1-5.33 3.7 32.3 32.3 0 0 1-4.91 2.28l-3.61-4.3a21.4 21.4 0 0 0 5.39-1.87 27.2 27.2 0 0 0 5.4-3.56 21.6 21.6 0 0 0 2.38-2.27 8.7 8.7 0 0 0 1.18-1.7 2.3 2.3 0 0 0 .27-1.19 1.34 1.34 0 0 0-.28-.74 1.21 1.21 0 0 0-1-.42 4.3 4.3 0 0 0-1.55.34 16 16 0 0 0-2 .88c-.72.37-1.48.77-2.27 1.21l-2.45 1.3c-.85.45-1.7.85-2.56 1.21a22 22 0 0 1-2.54.86 10 10 0 0 1-2.43.32 5.8 5.8 0 0 1-2.2-.45 5 5 0 0 1-1.89-1.45 6.1 6.1 0 0 1-1.31-2.41 6 6 0 0 1-.1-2.41 8.3 8.3 0 0 1 .81-2.38 14 14 0 0 1 1.49-2.24 22 22 0 0 1 1.85-2.05q1-1 2-1.77c.7-.59 1.44-1.15 2.23-1.7s1.62-1.06 2.44-1.53 1.63-.91 2.43-1.3 1.58-.75 2.3-1zm39.76-11.43-10.6-12.63 3.92 18.24-4.66 3.91-17.27-7 10.6 12.63-4.86 4.07-15.09-18 6.59-5.54 18.69 7.52-4.15-19.71 6.57-5.52 15.09 18-4.83 4.05m22.08-24.35-10 8.42 1.16 4.82-5.44 4.52-5.68-25.89 5.42-4.55 24.51 10.09-5.42 4.55-4.55-2m-11.23 3.45 6.57-5.52-8.83-3.87zm29.88-35.27c-.48.12-1.09.31-1.82.57a24 24 0 0 0-2.4 1 26 26 0 0 0-2.7 1.47 21 21 0 0 0-2.71 1.94c-.7.59-1.28 1.11-1.74 1.57a13 13 0 0 0-1.1 1.22 4.3 4.3 0 0 0-.59.91 2.5 2.5 0 0 0-.22.65 1.2 1.2 0 0 0 0 .47 2 2 0 0 0 .18.29 1.15 1.15 0 0 0 1 .37 5.5 5.5 0 0 0 1.51-.38q.87-.34 2-.9l2.26-1.18q1.2-.64 2.49-1.29c.87-.44 1.73-.83 2.59-1.17a19 19 0 0 1 2.6-.81 9.3 9.3 0 0 1 2.46-.29 6.1 6.1 0 0 1 2.24.49 5.1 5.1 0 0 1 1.89 1.46 6.5 6.5 0 0 1 1.41 2.61 6.1 6.1 0 0 1 .09 2.61 8.3 8.3 0 0 1-.9 2.52 16.3 16.3 0 0 1-1.63 2.36 21 21 0 0 1-2 2.16c-.72.67-1.41 1.29-2.1 1.86a33.4 33.4 0 0 1-5.32 3.71 32 32 0 0 1-4.92 2.28l-3.6-4.3a21.4 21.4 0 0 0 5.39-1.87 27.2 27.2 0 0 0 5.4-3.56 21.6 21.6 0 0 0 2.38-2.27 8.7 8.7 0 0 0 1.18-1.7A2.3 2.3 0 0 0 231 293a1.34 1.34 0 0 0-.28-.74 1.21 1.21 0 0 0-1-.42 4.3 4.3 0 0 0-1.55.34 17 17 0 0 0-2 .88c-.71.37-1.47.77-2.26 1.21l-2.46 1.3c-.84.44-1.7.85-2.55 1.21a25 25 0 0 1-2.54.86 10 10 0 0 1-2.36.36 5.8 5.8 0 0 1-2.2-.45 5 5 0 0 1-1.89-1.45 6.1 6.1 0 0 1-1.31-2.41 5.8 5.8 0 0 1-.1-2.41 8 8 0 0 1 .81-2.38 14.6 14.6 0 0 1 1.49-2.25 22 22 0 0 1 1.85-2q1-1 2-1.77c.7-.59 1.44-1.15 2.23-1.7s1.62-1.06 2.44-1.53 1.63-.91 2.43-1.31 1.58-.74 2.3-1l3.5 4.16m34.09-6.76-6.29-7.5L243 277.61l6.3 7.5-4.86 4.07-15.09-18 4.85-4.08 5.49 6.55L252 263.3l-5.49-6.55 4.86-4.07 15.09 18-4.86 4.08m10.58-8.86-15.09-18 4.86-4.08 15.09 18zm27.47-23.05-22.51-2.18L287.51 253l-4.85 4.08-15.1-18 5.28-4.43 22.56 2.22L285 224.5l4.83-4.06 15.09 18-5.26 4.42m7.02-37.34a32 32 0 0 1 5.29-3.66 34.5 34.5 0 0 1 5.14-2.35l3.69 4.39a21 21 0 0 0-2.37.61 20.5 20.5 0 0 0-2.61 1 25 25 0 0 0-2.76 1.49 24 24 0 0 0-2.8 2 20.4 20.4 0 0 0-2.8 2.77 12.8 12.8 0 0 0-1.64 2.52 7 7 0 0 0-.68 2.24 6 6 0 0 0 .66 3.64 8 8 0 0 0 .94 1.38 9 9 0 0 0 1.08 1.07 6.4 6.4 0 0 0 1.47.91 6.7 6.7 0 0 0 1.88.48 6.5 6.5 0 0 0 2.28-.18 11.7 11.7 0 0 0 2.74-1.07 19.4 19.4 0 0 0 3.18-2.22c.57-.48 1.06-.92 1.46-1.31a15 15 0 0 0 1-1.13 12 12 0 0 0 .81-1.05l.74-1.09-1.82-2.17-5.45 4.57-3.31-3.94 10.31-8.65 7.71 9.19a29 29 0 0 1-1.67 2.43q-1 1.26-2.1 2.52c-.74.84-1.5 1.65-2.3 2.44s-1.58 1.5-2.33 2.14a31 31 0 0 1-3.59 2.61 22.6 22.6 0 0 1-3.64 1.83 15.6 15.6 0 0 1-3.63.89 10.7 10.7 0 0 1-3.49-.15 10.5 10.5 0 0 1-3.28-1.33 12.5 12.5 0 0 1-3-2.67 12 12 0 0 1-2.08-3.44 10.5 10.5 0 0 1-.71-3.5 11.1 11.1 0 0 1 .51-3.51 15.7 15.7 0 0 1 1.56-3.43 21.6 21.6 0 0 1 2.42-3.28 30 30 0 0 1 3.15-3m30.27 6.08-15.1-18 4.86-4.08 11.79 14 13.13-11 3.31 3.94-18 15.1m37.64-46.84a12.3 12.3 0 0 1 2.59 4.81 10.44 10.44 0 0 1 0 5 14.6 14.6 0 0 1-2.33 5 25.6 25.6 0 0 1-4.56 4.85 26 26 0 0 1-5.6 3.67 14.8 14.8 0 0 1-5.38 1.43 10.4 10.4 0 0 1-4.94-.89 13.24 13.24 0 0 1-6.87-8.18 10.5 10.5 0 0 1 0-5 14.5 14.5 0 0 1 2.36-5 25.2 25.2 0 0 1 4.57-4.89 25 25 0 0 1 5.59-3.64 14.5 14.5 0 0 1 5.35-1.43 10.3 10.3 0 0 1 4.93.92 12.2 12.2 0 0 1 4.28 3.38m-4.91 4.11a8.4 8.4 0 0 0-2-1.72 5.5 5.5 0 0 0-2.65-.85 7.7 7.7 0 0 0-3.32.57 14.5 14.5 0 0 0-4 2.52 16.7 16.7 0 0 0-2.38 2.4 10.2 10.2 0 0 0-1.39 2.24 6.7 6.7 0 0 0-.56 2.1 5.7 5.7 0 0 0 .1 1.9 6.2 6.2 0 0 0 .61 1.69 10 10 0 0 0 1 1.44 10.5 10.5 0 0 0 1.26 1.23 6.7 6.7 0 0 0 1.57.92 6.1 6.1 0 0 0 1.85.41 6.8 6.8 0 0 0 2.15-.2 11 11 0 0 0 2.45-1 17.7 17.7 0 0 0 2.77-1.94 14.4 14.4 0 0 0 3.18-3.52 7.7 7.7 0 0 0 1.14-3.17 5.54 5.54 0 0 0-.37-2.74 8.5 8.5 0 0 0-1.36-2.3m12.99-27.07a32.3 32.3 0 0 1 5.34-3.66 34 34 0 0 1 5.15-2.35l3.69 4.4a20 20 0 0 0-2.37.6 22 22 0 0 0-2.61 1 26 26 0 0 0-2.77 1.49 24 24 0 0 0-2.8 2 21 21 0 0 0-2.8 2.78 13.2 13.2 0 0 0-1.64 2.51 7.3 7.3 0 0 0-.68 2.24 6.4 6.4 0 0 0 .06 2 5.8 5.8 0 0 0 .61 1.68 8 8 0 0 0 .93 1.38 9 9 0 0 0 1.08 1.08 6.6 6.6 0 0 0 1.48.9 6 6 0 0 0 1.87.48 6.8 6.8 0 0 0 2.28-.17 12 12 0 0 0 2.74-1.08 18.6 18.6 0 0 0 3.18-2.22c.58-.48 1.06-.92 1.46-1.31s.75-.77 1.05-1.12.57-.72.81-1.06l.73-1.09-1.82-2.17-5.45 4.57-3.3-3.94 10.3-8.65 7.71 9.19a29 29 0 0 1-1.67 2.43q-1 1.26-2.1 2.52c-.73.84-1.5 1.66-2.3 2.44s-1.57 1.5-2.33 2.14a31 31 0 0 1-3.59 2.61 22 22 0 0 1-3.64 1.83 15.6 15.6 0 0 1-3.62.89 11 11 0 0 1-3.49-.14 10.8 10.8 0 0 1-3.28-1.33 12.8 12.8 0 0 1-3-2.68 12.1 12.1 0 0 1-2.08-3.43A10.7 10.7 0 0 1 375 155a11.2 11.2 0 0 1 .51-3.51 15.5 15.5 0 0 1 1.57-3.43 21.4 21.4 0 0 1 2.42-3.28 30 30 0 0 1 3.14-3m45.99-22.47a12.26 12.26 0 0 1 2.59 4.82 10.44 10.44 0 0 1 0 5 14.5 14.5 0 0 1-2.34 5 25.3 25.3 0 0 1-4.56 4.86 26 26 0 0 1-5.59 3.67 14.8 14.8 0 0 1-5.38 1.43 10.6 10.6 0 0 1-4.95-.89 12.15 12.15 0 0 1-4.3-3.37 12 12 0 0 1-2.56-4.81 10.5 10.5 0 0 1 0-5 14.4 14.4 0 0 1 2.35-5 27.9 27.9 0 0 1 10.16-8.53 14.5 14.5 0 0 1 5.36-1.43 10.3 10.3 0 0 1 4.92.92 12.2 12.2 0 0 1 4.28 3.37m-4.91 4.12a8.2 8.2 0 0 0-2-1.72 5.6 5.6 0 0 0-2.65-.86 7.9 7.9 0 0 0-3.31.58 14.5 14.5 0 0 0-4 2.52 16.2 16.2 0 0 0-2.38 2.4 10 10 0 0 0-1.4 2.24 7 7 0 0 0-.56 2.1 6 6 0 0 0 .1 1.9 6.2 6.2 0 0 0 .62 1.69 8.5 8.5 0 0 0 1 1.44 9 9 0 0 0 1.26 1.23 6.7 6.7 0 0 0 1.57.92 6 6 0 0 0 1.84.41 6.9 6.9 0 0 0 2.16-.2 11.3 11.3 0 0 0 2.45-1 17.6 17.6 0 0 0 2.76-1.94 14.7 14.7 0 0 0 3.19-3.52 7.7 7.7 0 0 0 1.13-3.17 5.5 5.5 0 0 0-.36-2.74 8.6 8.6 0 0 0-1.37-2.3"/></g></svg>