<svg xmlns="http://www.w3.org/2000/svg" xmlns:xlink="http://www.w3.org/1999/xlink" width="1080" zoomAndPan="magnify" viewBox="0 0 810 809.999993" height="1080" preserveAspectRatio="xMidYMid meet" version="1.0"><defs><clipPath id="d3ae9d2ed1"><path d="M 0 0 L 810 0 L 810 615 L 0 615 Z M 0 0 " clip-rule="nonzero"/></clipPath></defs><g clip-path="url(#d3ae9d2ed1)"><path stroke-linecap="butt" transform="matrix(16.558595, 0, 0, 16.558593, -20260.110897, -4453.498316)" fill="none" stroke-linejoin="round" d="M 0.0000919306 -0.000101702 L 1280.00002 -0.000101702 L 1280.00002 799.999934 L 0.0000919306 799.999934 Z M 0.0000919306 -0.000101702 " stroke="#000000" stroke-width="0.32" stroke-opacity="1" stroke-miterlimit="2"/></g><path stroke-linecap="butt" transform="matrix(10.569562, 6.102338, -6.10234, 10.56956, -5136.774938, -7921.180861)" fill-opacity="1" fill="#000000" fill-rule="evenodd" stroke-linejoin="round" d="M 737.049076 328.388946 C 738.20614 328.093077 739.418194 328.60107 740.018947 329.632003 C 740.083089 329.682929 740.105931 329.721851 740.105931 329.721851 C 740.105931 329.721851 745.205909 338.580878 739.42908 352.78202 C 737.281002 358.060934 736.606031 364.799935 737.98807 370.192033 C 738.251914 371.236018 737.868118 372.336084 737.014088 372.991032 C 736.159141 373.645032 734.996965 373.729129 734.058001 373.203167 C 728.689957 370.090954 722.026888 363.795989 722.021049 351.999925 C 722.015871 340.503944 728.494971 330.749872 737.049076 328.388946 Z M 737.049076 328.388946 " stroke="#000000" stroke-width="0.32" stroke-opacity="1" stroke-miterlimit="2"/><path stroke-linecap="butt" transform="matrix(-10.569562, -6.102338, 6.10234, -10.56956, 6242.211769, 8569.663749)" fill-opacity="1" fill="#000000" fill-rule="evenodd" stroke-linejoin="round" d="M 736.985967 328.407132 C 738.175004 328.096869 739.425939 328.617154 740.044892 329.678971 C 740.093106 329.701028 740.105982 329.72205 740.105982 329.72205 C 740.105982 329.72205 745.205961 338.581077 739.428971 352.781942 C 737.261108 358.111084 736.593904 364.926907 738.028059 370.343983 C 738.292043 371.356844 737.927932 372.428913 737.101004 373.07191 C 736.275024 373.71399 735.145979 373.802981 734.23001 373.297005 C 728.832048 370.22387 722.026979 363.921082 722.0211 352.000124 C 722.016166 340.53209 728.463199 330.79801 736.985967 328.407132 Z M 736.985967 328.407132 " stroke="#000000" stroke-width="0.32" stroke-opacity="1" stroke-miterlimit="2"/><path stroke-linecap="butt" transform="matrix(16.558595, 0, 0, 16.558593, -12842.53711, -5500.994823)" fill-opacity="1" fill="#404040" fill-rule="evenodd" stroke-linejoin="round" d="M 792.010925 368.376916 C 792.880941 368.366064 793.637959 367.778897 793.867023 366.94002 C 793.905004 366.881987 793.914911 366.84495 793.914911 366.84495 C 793.914911 366.84495 795.855935 359.563988 789.034044 350.55691 C 786.506089 347.219094 784.744117 342.57012 784.687972 338.476938 C 784.672874 337.676041 784.184079 336.961014 783.441923 336.656933 C 782.700947 336.353088 781.850038 336.518929 781.277026 337.078966 C 778.059994 340.325959 774.552091 346.066936 776.789883 354.434004 C 778.980966 362.626974 785.464098 368.337991 792.010925 368.376916 Z M 796.549967 363.99994 C 797.324914 364.443912 797.962092 364.630041 798.879054 364.474108 C 798.491934 365.39909 797.918922 366.082978 797.370915 366.568942 C 797.120856 366.765922 796.775963 366.793051 796.499011 366.636882 C 796.221116 366.481893 796.064003 366.174037 796.101984 365.857925 C 796.12699 365.354033 796.248009 364.755071 796.549967 363.99994 Z M 800.000073 338.416074 C 792.778087 343.711899 792.721942 351.485903 792.428948 351.099019 C 785.607056 342.090998 787.424938 334.591115 787.424938 334.591115 C 787.424938 334.591115 787.436025 334.550068 787.453954 334.483071 C 787.683018 333.643958 788.433902 333.052073 789.303919 333.027067 C 793.182899 333.073069 797.042064 335.07991 800.000073 338.416074 Z M 800.000073 338.416074 " stroke="#000000" stroke-width="0.32" stroke-opacity="1" stroke-miterlimit="2"/></svg>