<?xml version="1.0" encoding="UTF-8"?>
<svg id="Capa_2" data-name="Capa 2" xmlns="http://www.w3.org/2000/svg" viewBox="0 0 143.78 164.33">
  <defs>
    <style>
      path { fill: #000; }
        @media (prefers-color-scheme: dark) {
            path { fill: #FFF; }
        }
    </style>
  </defs>
  <g id="Capa_1-2" data-name="Capa 1">
    <path class="cls-1" d="M137.25,45.08c-4.36-10.02-9.94-18.35-16.72-24.99-6.79-6.62-14.34-11.64-22.65-15.02-8.31-3.38-16.52-5.07-24.62-5.07-10.94,0-20.92,2.26-29.94,6.75-9.02,4.51-16.72,10.46-23.1,17.89-6.38,7.43-11.35,15.98-14.9,25.66C1.77,59.98,0,70,0,80.35c0,14.41,2.28,26.95,6.84,37.64,4.56,10.69,10.44,19.48,17.62,26.34,7.2,6.87,15.06,11.89,23.56,15.03,7.37,2.73,14.5,4.27,21.4,4.64h0c1.09.06,2.15.09,3.22.09,4.41,0,8.72-.46,12.93-1.37h.02c4.88-1.07,9.64-2.75,14.26-5.05,8.61-4.27,16.16-10.24,22.64-17.89,6.48-7.65,11.65-16.59,15.5-26.83,3.85-10.24,5.78-21.1,5.78-32.58,0-13.5-2.18-25.26-6.53-35.28ZM113.23,105.68c-1.52,9.22-3.95,17.82-7.3,25.83-4.56,10.91-6.92,16.47-13.06,19.91-1,.56-10.9,5.91-18.53.7-3.8-2.6-6.79-7.51-6.08-12.21.69-4.58,4.4-8.03,7.79-11.19,5.54-5.16,10.82-10.67,14.84-17.09,12.44-19.88,10.14-47.83-5.39-65.42-4.89-5.55-11.95-10.35-19.2-8.92-9.07,1.8-13.71,12.67-12.52,21.84,1.2,9.16,6.44,17.2,10.46,25.52,4.02,8.31,6.87,18.2,3.13,26.66-3.24,7.32-10.88,12.21-13.22,19.85-2.84,9.29,4.15,17.74,5.14,19.1,6.48,8.85,18.11,13.12,30.12,11.48-3.52,1.14-21.67,6.67-36.36-3.17-9.17-6.14-13.21-15.74-16.54-23.66-3.13-7.45-4.13-13.3-5.8-23.17-2.5-14.73-2.43-26.03-2.43-29.37,0-9.45.96-18.74,2.89-27.84,1.92-9.13,4.76-17.35,8.51-24.64,3.74-7.33,8.25-13.23,13.52-17.73,5.28-4.5,11.25-6.76,17.94-6.76,8.3,0,15.29,2.43,20.97,7.26,5.68,4.85,10.24,10.97,13.68,18.4,3.45,7.43,5.92,15.53,7.45,24.32,1.52,8.77,2.28,17,2.28,24.64s-.76,16.43-2.28,25.67Z"/>
  </g>
</svg>