<?xml version="1.0" encoding="UTF-8"?>
<svg id="Capa_2" data-name="Capa 2" xmlns="http://www.w3.org/2000/svg" viewBox="0 0 526.84 171.14">
  <defs>
    <style>
      .cls-1 {
        fill: #000;
        stroke-width: 0px;
      }
    </style>
  </defs>
  <g id="Capa_1-2" data-name="Capa 1">
    <g>
      <path class="cls-1" d="M522.33,34.37c-3.01-6.91-6.86-12.66-11.54-17.25-4.69-4.57-9.89-8.03-15.63-10.36-5.74-2.33-11.4-3.5-16.99-3.5-7.55,0-14.44,1.56-20.66,4.66-6.23,3.11-11.54,7.22-15.94,12.35s-7.83,11.03-10.28,17.71c-2.45,6.68-3.67,13.59-3.67,20.74,0,9.94,1.57,18.6,4.72,25.97,3.15,7.38,7.2,13.44,12.16,18.17,4.97,4.74,10.39,8.2,16.26,10.37,4.23,1.57,8.34,2.53,12.35,2.97-2.97-.53-6.02-1.58-8.89-3.51-6.33-4.24-9.11-10.86-11.41-16.33-2.16-5.14-2.85-9.18-4-15.99-1.72-10.17-1.68-17.96-1.68-20.27,0-6.52.66-12.93,1.99-19.21,1.33-6.3,3.28-11.97,5.87-17.01,2.58-5.06,5.7-9.13,9.33-12.24,3.64-3.11,7.76-4.67,12.38-4.67,5.73,0,10.55,1.68,14.47,5.01,3.92,3.35,7.06,7.57,9.44,12.7,2.38,5.13,4.09,10.72,5.14,16.78,1.05,6.05,1.57,11.73,1.57,17.01s-.52,11.34-1.57,17.71c-1.05,6.36-2.73,12.3-5.04,17.82-3.15,7.53-4.77,11.37-9.02,13.74-.69.39-7.52,4.08-12.79.48-2.62-1.79-4.68-5.18-4.2-8.42.47-3.16,3.04-5.54,5.37-7.72,3.82-3.56,7.47-7.37,10.24-11.79,8.58-13.72,7-33.01-3.72-45.14-3.37-3.83-8.25-7.14-13.25-6.16-6.26,1.24-9.46,8.74-8.64,15.07.83,6.32,4.45,11.87,7.22,17.61,2.78,5.74,4.74,12.56,2.16,18.39-2.23,5.05-7.51,8.42-9.13,13.7-1.96,6.41,2.86,12.24,3.55,13.18,4.47,6.1,12.49,9.05,20.77,7.93,2.46-.71,4.87-1.65,7.23-2.82,5.94-2.95,11.15-7.06,15.63-12.35,4.47-5.28,8.04-11.45,10.7-18.52,2.66-7.06,3.99-14.56,3.99-22.48,0-9.32-1.5-17.43-4.51-24.35Z"/>
      <path class="cls-1" d="M486.68,115.54h0c-2.91.63-5.88.95-8.93.95-.74,0-1.47-.02-2.22-.06h0c-.8-.04-1.61-.14-2.42-.23,7.52,1.35,14.46-.75,16.2-1.32,0,0-.01,0-.02,0-.86.25-1.73.47-2.6.66h0Z"/>
      <path class="cls-1" d="M112.53,3.27c-1.87,0-3.5.27-4.9.82-1.4.55-2.73,1.17-3.97,1.87-1.25.7-2.61,1.32-4.09,1.87-1.48.55-3.15.82-5.02.82s-3.47-.08-4.79-.23c-1.32-.15-2.92-.54-4.79-1.17-4.98-2.65-9.77-4.51-14.36-5.6-4.59-1.09-9.85-1.63-15.76-1.63-6.54,0-12.57.93-18.09,2.8-5.53,1.87-10.31,4.4-14.36,7.59-4.05,3.19-7.2,6.97-9.46,11.32-2.26,4.36-3.39,9.03-3.39,14.01,0,7.94,1.9,14.48,5.72,19.61,3.81,5.14,9.14,9.03,15.99,11.67v.7c-3.89.47-7.51,1.44-10.86,2.92-3.35,1.48-6.27,3.31-8.75,5.49-2.49,2.18-4.44,4.59-5.84,7.24-1.4,2.65-2.1,5.45-2.1,8.4,0,5.92,2.14,10.66,6.42,14.24,4.28,3.58,10.39,5.84,18.33,6.77v.47c-3.27,2.02-6.58,4.09-9.92,6.19-3.35,2.1-6.38,4.36-9.11,6.77-2.73,2.41-4.98,4.94-6.77,7.59-1.79,2.65-2.68,5.6-2.68,8.87,0,8.87,4.71,15.84,14.12,20.9,9.42,5.06,22.61,7.59,39.57,7.59,8.87,0,17-1.21,24.4-3.62,7.39-2.42,13.81-5.72,19.26-9.92,5.45-4.2,9.69-9.07,12.72-14.59,3.04-5.53,4.55-11.32,4.55-17.39,0-4.67-.82-8.91-2.45-12.72-1.63-3.81-4.01-7.2-7.12-10.16-3.12-2.95-6.85-5.29-11.21-7-4.36-1.71-9.26-2.57-14.71-2.57h-37.36c-2.65,0-5.37-.15-8.17-.47-2.8-.31-5.37-.93-7.7-1.87-2.33-.93-4.28-2.22-5.84-3.85-1.56-1.63-2.33-3.7-2.33-6.19,0-3.11,1.48-5.68,4.44-7.7,2.95-2.02,6.92-3.19,11.91-3.5,3.11,0,5.8.16,8.05.47,2.25.31,4.47.47,6.65.47,15.1,0,26.93-3.07,35.49-9.22,8.56-6.15,12.84-15.37,12.84-27.67,0-4.98-.82-9.02-2.45-12.14-1.63-3.11-3.62-6.46-5.95-10.04l.93-.93c1.87,1.09,3.97,2.3,6.3,3.62,2.33,1.32,4.63,2.53,6.89,3.62,2.25,1.09,4.32,2.02,6.19,2.8,1.87.78,3.27,1.17,4.2,1.17,2.33,0,4.32-.89,5.95-2.68,1.63-1.79,2.45-3.85,2.45-6.19,0-2.64-.86-4.9-2.57-6.77-1.71-1.87-3.89-2.8-6.54-2.8ZM36.89,113.47c2.18-.31,4.98-.62,8.4-.93,3.42-.31,6.77-.47,10.04-.47,9.02,0,16.11.35,21.25,1.05,5.14.7,9.42,1.9,12.84,3.62,2.65,1.24,4.9,3.5,6.77,6.77,1.87,3.27,2.8,7.16,2.8,11.67,0,6.69-2.06,12.45-6.19,17.28-4.13,4.82-8.91,8.32-14.36,10.51-2.65.93-5.64,1.63-8.99,2.1-3.35.47-7.35.7-12.02.7-3.89,0-8.14-.62-12.72-1.87-4.59-1.25-8.91-3.15-12.96-5.72-4.05-2.57-7.43-5.72-10.16-9.46-2.73-3.74-4.09-8.09-4.09-13.07s1.4-9.26,4.2-13.31c2.8-4.05,7.86-7,15.18-8.87ZM76.81,46.11c-1.09,3.97-2.73,7.51-4.9,10.62-2.18,3.12-4.87,5.6-8.05,7.47-3.19,1.87-6.89,2.8-11.09,2.8-6.85,0-12.65-2.84-17.39-8.52-4.75-5.68-7.12-13.19-7.12-22.53,0-4.05.54-8.01,1.63-11.91,1.09-3.89,2.68-7.35,4.79-10.39,2.1-3.03,4.71-5.45,7.82-7.24,3.11-1.79,6.61-2.68,10.51-2.68,4.2,0,7.9.82,11.09,2.45,3.19,1.63,5.84,3.82,7.94,6.54,2.1,2.73,3.7,5.88,4.79,9.46,1.09,3.58,1.63,7.39,1.63,11.44,0,4.36-.55,8.52-1.63,12.49Z"/>
      <path class="cls-1" d="M200.9,3.5c-2.73-2.33-6.03-3.5-9.92-3.5-4.83,0-9.11,1.32-12.84,3.97-3.74,2.65-6.93,5.8-9.57,9.46-2.65,3.66-4.83,7.28-6.54,10.86-1.71,3.58-2.96,6.3-3.74,8.17h-.47l.47-32.45h-1.4l-30.59,11.91v1.4c1.87.78,3.74,1.75,5.6,2.92,1.87,1.17,3.5,2.14,4.9,2.92,1.09.78,1.75,1.48,1.98,2.1.23.62.35,1.56.35,2.8v78.91c0,2.49-1.28,4.28-3.85,5.37-2.57,1.09-5.64,1.79-9.22,2.1v2.33h52.3v-2.33c-1.56-.31-3.39-.5-5.49-.58-2.1-.08-4.13-.27-6.07-.58-1.95-.31-3.7-.85-5.25-1.63-1.56-.78-2.57-1.87-3.04-3.27V37.12c.93-2.33,2.02-4.79,3.27-7.35,1.24-2.57,2.64-4.86,4.2-6.89,1.55-2.02,3.23-3.7,5.02-5.02,1.79-1.32,3.62-1.98,5.49-1.98,2.18,0,3.89.43,5.14,1.28,1.24.86,2.41,1.83,3.5,2.92,1.09,1.09,2.37,2.06,3.85,2.92,1.48.86,3.46,1.28,5.95,1.28,2.65,0,4.98-1.13,7-3.39,2.02-2.25,3.04-5.1,3.04-8.52s-1.36-6.54-4.09-8.87Z"/>
      <path class="cls-1" d="M306.31,95.61c-1.71,1.48-4.36,2.22-7.94,2.22-3.12,0-5.88-1.13-8.29-3.39-2.42-2.25-3.62-6.89-3.62-13.89,0-5.29.04-10.16.12-14.59.08-4.44.12-8.76.12-12.96s.04-8.56.12-13.07c.08-4.51.12-9.57.12-15.18,0-2.65-.08-5.33-.23-8.05-.16-2.72-.55-4.63-1.17-5.72-1.56-3.11-4.13-5.72-7.7-7.82-3.58-2.1-7.39-3.15-11.44-3.15-2.02,0-4.63.47-7.82,1.4-3.19.93-6.69,2.18-10.51,3.74-3.82,1.56-7.82,3.42-12.02,5.6-4.2,2.18-8.33,4.44-12.37,6.77-1.25.78-2.68,1.63-4.32,2.57-1.63.93-3.15,2.02-4.55,3.27-1.4,1.25-2.57,2.65-3.5,4.2-.93,1.56-1.4,3.27-1.4,5.14,0,2.33.89,4.4,2.68,6.19,1.79,1.79,3.93,2.69,6.42,2.69,2.65,0,5.1-.85,7.35-2.57,2.25-1.71,3.39-3.66,3.39-5.84v-10.51c0-.93.54-2.06,1.63-3.39,1.09-1.32,2.57-2.65,4.44-3.97,1.87-1.32,4.01-2.41,6.42-3.27,2.41-.85,4.86-1.28,7.35-1.28,3.74,0,6.77.51,9.11,1.52,2.33,1.01,4.16,2.14,5.49,3.39,1.32,1.25,2.25,2.45,2.8,3.62.54,1.17.82,1.91.82,2.22v24.05c-1.56.93-3.47,1.98-5.72,3.15-2.26,1.17-4.87,2.57-7.82,4.2-2.96,1.63-6.42,3.62-10.39,5.95-3.97,2.33-8.52,5.14-13.66,8.41-5.14,3.27-9.46,6.93-12.96,10.97-3.5,4.05-5.25,8.25-5.25,12.61,0,4.05.66,7.47,1.98,10.27,1.32,2.8,3.03,5.1,5.14,6.89,2.1,1.79,4.44,3.03,7,3.74s5.1,1.05,7.59,1.05c4.2,0,8.05-.66,11.56-1.98,3.5-1.32,6.69-3.07,9.57-5.25,2.88-2.18,5.37-4.51,7.47-7,2.1-2.49,3.77-4.75,5.02-6.77l.47.23c0,7.78,2.06,13.23,6.19,16.34,4.12,3.12,8.83,4.67,14.12,4.67,3.27,0,6.26-.58,8.99-1.75,2.72-1.17,5.1-2.88,7.12-5.14,2.02-2.25,3.66-4.79,4.9-7.59,1.24-2.8,1.94-5.68,2.1-8.64h-1.4c-.62,2.33-1.79,4.24-3.5,5.72ZM267.79,85.22c0,2.65-.93,4.83-2.8,6.54-2.65,2.65-5.53,4.44-8.64,5.37-3.12.93-6.69,1.4-10.74,1.4-4.52,0-8.17-1.63-10.97-4.9-2.8-3.27-4.2-6.92-4.2-10.97s1.44-7.66,4.32-10.86c2.88-3.19,6.3-6.11,10.27-8.75,3.97-2.65,8.05-5.1,12.26-7.35,4.2-2.25,7.7-4.4,10.51-6.42v35.96Z"/>
      <path class="cls-1" d="M417.45,109.15c-1.4-.39-2.61-.97-3.62-1.75-1.01-.78-1.52-1.71-1.52-2.8V35.95c0-10.58-2.41-19.22-7.21-25.92-4.81-6.69-11.71-10.04-20.71-10.04-4.19,0-8.22.82-12.1,2.45-3.88,1.63-7.45,3.7-10.7,6.19-3.26,2.49-6.17,5.25-8.72,8.29-2.56,3.04-4.69,5.88-6.4,8.52l-.47-.23V0h-1.4l-30.59,10.97v1.4c1.87.78,3.74,1.67,5.6,2.69,1.87,1.01,3.5,1.91,4.9,2.68,1.09.78,1.75,1.48,1.98,2.1.23.62.35,1.56.35,2.8v80.31c0,2.49-1.28,4.28-3.85,5.37-2.57,1.09-5.64,1.79-9.22,2.1v2.33h45.06v-2.33c-1.56-.31-3.04-.5-4.44-.58-1.4-.08-2.65-.27-3.74-.58-1.09-.31-2.03-.82-2.8-1.52-.78-.7-1.32-1.83-1.63-3.39V27.78c4.2-4.2,8.02-7.39,11.44-9.57,3.42-2.18,7.7-3.27,12.84-3.27,8.09,0,13.85,2.77,17.28,8.29,3.42,5.53,5.14,12.8,5.14,21.83v58.84c0,2.49-1.25,4.09-3.74,4.79-2.49.7-5.84,1.21-10.04,1.52v2.57h47.39v-2.1c-1.4-.15-2.92-.35-4.55-.58s-3.15-.54-4.55-.93Z"/>
    </g>
  </g>
</svg>